<svg xmlns="http://www.w3.org/2000/svg" viewBox="0 0 24 24"><g data-name="album music"><path d="M22.76 7.34C22.32 6.85 23.8 7 2 7a1 1 0 0 0-1 1.14l2 14A1 1 0 0 0 4 23h16a1 1 0 0 0 1-.86C23.15 7 23.18 7.84 22.76 7.34zM19.13 21H4.87L3.15 9h17.7z"/><path d="M12 20c3.31 0 6-2.24 6-5s-2.69-5-6-5-6 2.24-6 5 2.69 5 6 5zm0-8c2.21 0 4 1.35 4 3s-1.79 3-4 3-4-1.35-4-3 1.79-3 4-3z"/><path d="M12 16a1 1 0 0 0 0-2 1 1 0 0 0 0 2zM3 6h18a1 1 0 0 0 0-2H3a1 1 0 0 0 0 2zM5 3h14a1 1 0 0 0 0-2H5a1 1 0 0 0 0 2z"/></g></svg>