<svg xmlns="http://www.w3.org/2000/svg" viewBox="0 0 256 256" style="enable-background:new 0 0 256 256" xml:space="preserve"><style>.st0{fill:#f98fa6}.st1{fill:#fc657e}.st5{fill:#f5c84c}.st7{fill:#70d6f9}.st11{fill:#f9c1a8}</style><g id="Layer_85"><path class="st5" d="M195.736 121.675a7.772 7.772 0 1 0 0 15.544 7.772 7.772 0 0 0 0-15.544zM207.818 79.823a5.114 5.114 0 1 0 .001 10.229 5.114 5.114 0 0 0-.001-10.229zM225.475 76.105a5.114 5.114 0 1 0 .001 10.229 5.114 5.114 0 0 0-.001-10.229z"/><path class="st1" d="M49.356 151.882c-4.498-.837-8.042-4.31-8.898-8.716a.2.2 0 0 0-.395 0c-.855 4.406-4.4 7.879-8.898 8.716a.195.195 0 0 0 0 .387c4.498.838 8.042 4.311 8.898 8.717a.2.2 0 0 0 .395 0c.855-4.406 4.4-7.879 8.898-8.717a.195.195 0 0 0 0-.387z"/><path class="st5" d="M54.41 50.944c-3.062-.57-5.475-2.935-6.057-5.934-.029-.15-.24-.15-.269 0-.582 3-2.995 5.364-6.057 5.934a.133.133 0 0 0 0 .263c3.062.57 5.475 2.934 6.057 5.934.029.151.24.151.269 0 .582-3 2.995-5.363 6.057-5.934a.133.133 0 0 0 0-.263z"/><path class="st7" d="M207.754 38.302h-2.329v-2.33a3.156 3.156 0 1 0-6.314 0v2.33h-2.33a3.157 3.157 0 0 0 0 6.315h2.33v2.33a3.157 3.157 0 1 0 6.314 0v-2.33h2.329a3.157 3.157 0 0 0 0-6.315z"/><path d="M26.289 177a3.377 3.377 0 1 0 0 6.754 3.377 3.377 0 0 0 0-6.754z" style="fill:#87d147"/><path class="st1" d="M190.289 15a3.377 3.377 0 1 0 0 6.754 3.377 3.377 0 0 0 0-6.754z"/><path d="M181.359 52.973c0-27.83-22.641-50.471-50.47-50.471h-13.986c-27.829 0-50.47 22.641-50.47 50.471v15.011a19.996 19.996 0 0 1 3.799-1.374v.001c.835-2.833 3.461-4.917 6.554-4.917h.558c3.759 0 6.834 3.076 6.834 6.834v-.101c.001-1.351 1.269-2.347 2.591-2.07 7.274 1.522 28.908 4.125 43.573-14.317a2.161 2.161 0 0 1 3.214-.202c3.377 3.31 12.166 9.92 28.846 10.41 1.138.033 2.05.972 2.073 2.111.004.208.007.418.007.628v3.542c0-3.759 3.075-6.834 6.834-6.834h.558c3.093 0 5.719 2.084 6.554 4.917v-.001c1.012.253 1.989.591 2.934.991V52.973z" style="fill:#dae6f1"/><path class="st0" d="M171.871 61.694h-.558c-3.759 0-6.834 3.076-6.834 6.834v35.108c0 3.759 3.075 6.834 6.834 6.834h.558c3.759 0 6.834-3.076 6.834-6.834V68.529c.001-3.759-3.075-6.835-6.834-6.835z"/><path class="st1" d="M187.771 71.927a20.035 20.035 0 0 0-9.346-5.317c.18.609.281 1.253.281 1.919v35.108c0 .659-.099 1.296-.276 1.9a20.036 20.036 0 0 0 9.074-5.035 9.372 9.372 0 0 0 2.834-6.732V78.379c0-2.4-.875-4.75-2.567-6.452z"/><path class="st0" d="M77.342 61.694h-.558c-3.759 0-6.834 3.076-6.834 6.834v35.108c0 3.759 3.075 6.834 6.834 6.834h.558c3.759 0 6.834-3.076 6.834-6.834V68.529c.001-3.759-3.075-6.835-6.834-6.835z"/><path class="st1" d="M69.95 68.529c0-.667.101-1.31.281-1.919a20.047 20.047 0 0 0-9.346 5.317c-1.692 1.702-2.567 4.053-2.567 6.453v15.392a9.372 9.372 0 0 0 2.834 6.732 20.041 20.041 0 0 0 9.074 5.035 6.782 6.782 0 0 1-.276-1.9v-35.11z"/><path d="M130.889 14.696h-13.986c-21.106 0-38.276 17.171-38.276 38.277v8.848c3.15.605 5.55 3.389 5.55 6.708v-.101c.001-1.351 1.269-2.347 2.591-2.07 7.274 1.522 28.908 4.125 43.573-14.317a2.161 2.161 0 0 1 3.214-.202c3.377 3.31 12.166 9.92 28.846 10.41 1.138.033 2.05.972 2.073 2.111.004.208.007.418.007.628v3.542c0-3.008 1.972-5.574 4.685-6.481v-9.075c-.002-21.107-17.172-38.278-38.277-38.278z" style="fill:#414344"/><path class="st11" d="M164.473 64.359c-.023-1.139-.934-2.077-2.073-2.111-16.68-.489-25.469-7.1-28.846-10.41a2.162 2.162 0 0 0-3.214.202c-14.665 18.442-36.299 15.84-43.573 14.317-1.322-.276-2.59.72-2.591 2.07v32.326c0 22.083 18.068 40.151 40.151 40.151 22.083 0 40.151-18.068 40.151-40.151V64.987c.001-.21-.001-.42-.005-.628z"/><path class="st7" d="M205.301 183.09a15.844 15.844 0 0 0-11.952-14.484l-31.182-7.849-11.021-5.434a13.87 13.87 0 0 1-7.737-12.44v-6.834a39.793 39.793 0 0 1-19.081 4.856 39.772 39.772 0 0 1-17.914-4.256v6.234c0 5.282-3 10.105-7.737 12.44l-11.021 5.434-31.182 7.849a15.844 15.844 0 0 0-11.952 14.484l-4.439 65.76a4.405 4.405 0 0 0 4.398 4.65h160.861a4.405 4.405 0 0 0 4.398-4.65l-4.439-65.76z"/><path class="st11" d="M151.146 155.323a13.87 13.87 0 0 1-7.737-12.44v-6.834a39.793 39.793 0 0 1-19.081 4.856 39.772 39.772 0 0 1-17.914-4.256v6.234c0 5.282-3 10.105-7.737 12.44l-1.731.854c5.23 10.148 15.818 17.134 27.965 17.134s22.735-6.985 27.965-17.134l-1.73-.854z"/><path d="M166.972 64.31a4.641 4.641 0 0 0-4.499-4.561c-16.075-.472-24.355-6.938-27.169-9.696a4.678 4.678 0 0 0-3.553-1.327 4.683 4.683 0 0 0-3.367 1.759C114.831 67.53 95.124 65.553 87.28 63.911a4.662 4.662 0 0 0-3.896.945 4.603 4.603 0 0 0-1.707 3.6v32.298c0 23.518 19.134 42.651 42.651 42.651s42.65-19.134 42.65-42.651V64.986c.001-.224-.001-.45-.006-.676zm-4.993 36.443c0 20.761-16.89 37.651-37.65 37.651s-37.651-16.891-37.651-37.651V68.891c7.29 1.449 29.989 4.053 45.393-15.01 4.126 3.937 13.299 10.284 29.908 10.855l.001.25v35.767zM180.523 199.64a2.5 2.5 0 0 0-2.5 2.5v50.324a2.5 2.5 0 1 0 5 0V202.14a2.5 2.5 0 0 0-2.5-2.5zM69.3 199.64a2.5 2.5 0 0 0-2.5 2.5v50.324a2.5 2.5 0 1 0 5 0V202.14a2.5 2.5 0 0 0-2.5-2.5z"/><path d="m212.234 248.683-4.438-65.731c-.449-8.06-6.01-14.799-13.838-16.771l-30.925-7.782-10.783-5.317a11.303 11.303 0 0 1-6.342-10.198v-6.173a2.5 2.5 0 1 0-5 0v6.173c0 6.279 3.499 11.905 9.131 14.683L161.062 163c.158.078.324.139.495.183l31.182 7.847c5.694 1.435 9.739 6.337 10.068 12.229l4.438 65.731a1.885 1.885 0 0 1-.519 1.415 1.885 1.885 0 0 1-1.383.596H44.48c-.528 0-1.02-.212-1.383-.596a1.875 1.875 0 0 1-.521-1.386l4.441-65.79a13.286 13.286 0 0 1 10.066-12.198l31.182-7.848c.171-.044.337-.104.495-.183l11.021-5.435c5.632-2.777 9.131-8.403 9.131-14.683v-5.591a2.5 2.5 0 1 0-5 0v5.591a11.3 11.3 0 0 1-6.342 10.198l-10.783 5.317-30.925 7.783c-7.828 1.971-13.389 8.71-13.836 16.74l-4.441 65.79a6.93 6.93 0 0 0 1.878 5.128 6.93 6.93 0 0 0 5.016 2.16h160.862a6.93 6.93 0 0 0 5.016-2.16 6.93 6.93 0 0 0 1.877-5.155z"/><path d="M153.624 154.862a2.5 2.5 0 0 0-3.399.972c-5.133 9.237-14.833 14.977-25.313 14.977-10.493 0-20.198-5.75-25.329-15.006a2.5 2.5 0 1 0-4.373 2.423c6.012 10.845 17.393 17.582 29.702 17.582 12.295 0 23.67-6.725 29.685-17.549a2.502 2.502 0 0 0-.973-3.399zM106.62 80.788c-5.021 0-9.105 4.085-9.105 9.105a2.5 2.5 0 1 0 5 0c0-2.264 1.842-4.105 4.105-4.105s4.105 1.842 4.105 4.105a2.5 2.5 0 1 0 5 0c.001-5.02-4.084-9.105-9.105-9.105zM143.203 80.788c-5.021 0-9.105 4.085-9.105 9.105a2.5 2.5 0 1 0 5 0c0-2.264 1.842-4.105 4.105-4.105s4.105 1.842 4.105 4.105a2.5 2.5 0 1 0 5 0c.001-5.02-4.084-9.105-9.105-9.105zM138.931 111.357a2.502 2.502 0 0 0-3.355-1.115c-3.078 1.543-6.766 2.358-10.663 2.358-3.898 0-7.586-.815-10.664-2.358a2.5 2.5 0 0 0-2.24 4.47c3.77 1.889 8.231 2.888 12.904 2.888 4.672 0 9.134-.999 12.903-2.888a2.5 2.5 0 0 0 1.115-3.355zM171.871 59.194h-.558c-5.147 0-9.335 4.188-9.335 9.334a2.5 2.5 0 1 0 5 0 4.339 4.339 0 0 1 4.335-4.334h.558a4.339 4.339 0 0 1 4.334 4.334v35.109a4.339 4.339 0 0 1-4.334 4.334h-.558a4.339 4.339 0 0 1-4.335-4.334v-3.055a2.5 2.5 0 1 0-5 0v3.055c0 5.146 4.188 9.334 9.335 9.334h.558c5.146 0 9.334-4.188 9.334-9.334V68.528c0-5.146-4.187-9.334-9.334-9.334z"/><path d="M189.545 70.164a22.584 22.584 0 0 0-10.193-5.897 2.5 2.5 0 0 0-1.286 4.832 17.585 17.585 0 0 1 7.932 4.59c1.169 1.177 1.84 2.887 1.84 4.69v15.392a6.91 6.91 0 0 1-2.074 4.938 17.59 17.59 0 0 1-7.7 4.342 2.501 2.501 0 0 0 1.286 4.832 22.586 22.586 0 0 0 9.896-5.584c2.284-2.214 3.594-5.322 3.594-8.527V78.379c-.002-3.114-1.202-6.108-3.295-8.215zM84.177 96.502a2.5 2.5 0 0 0-2.5 2.5v4.636a4.339 4.339 0 0 1-4.334 4.334h-.559a4.339 4.339 0 0 1-4.334-4.334v-35.11a4.339 4.339 0 0 1 4.334-4.334h.559a4.339 4.339 0 0 1 4.334 4.334 2.5 2.5 0 1 0 5 0c0-5.146-4.188-9.334-9.334-9.334h-.559c-5.146 0-9.334 4.188-9.334 9.334v35.109c0 5.146 4.188 9.334 9.334 9.334h.559c5.146 0 9.334-4.188 9.334-9.334v-4.636a2.5 2.5 0 0 0-2.5-2.499z"/><path d="M70.277 102.964a17.588 17.588 0 0 1-7.386-4.256 6.906 6.906 0 0 1-2.074-4.938V78.379c0-1.804.671-3.514 1.841-4.689a17.59 17.59 0 0 1 7.771-4.548 2.498 2.498 0 0 0 1.743-3.075 2.492 2.492 0 0 0-3.075-1.743 22.575 22.575 0 0 0-9.984 5.841c-2.094 2.105-3.295 5.1-3.295 8.215v15.392c0 3.205 1.31 6.313 3.594 8.527a22.59 22.59 0 0 0 9.491 5.473 2.5 2.5 0 0 0 3.09-1.715 2.5 2.5 0 0 0-1.716-3.093zM130.889 12.196h-13.986c-22.484 0-40.776 18.292-40.776 40.776v7.967a2.5 2.5 0 1 0 5 0v-7.967c0-19.728 16.049-35.776 35.776-35.776h13.986c19.727 0 35.775 16.049 35.775 35.776v8.466a2.5 2.5 0 1 0 5 0v-8.466c0-22.484-18.292-40.776-40.775-40.776z"/><path d="M130.889.002h-13.986c-29.208 0-52.97 23.763-52.97 52.971v14.586a2.5 2.5 0 1 0 5 0V52.973c0-26.451 21.52-47.971 47.97-47.971h13.986c26.45 0 47.97 21.52 47.97 47.971v13.989a2.5 2.5 0 1 0 5 0V52.973C183.858 23.765 160.097.002 130.889.002zM217.817 104.838c-2.76-2.766-7.481-6.063-14.31-6.063a2.5 2.5 0 0 0-2.5 2.5v28.173a2.5 2.5 0 1 0 5 0v-25.466c3.796.64 6.538 2.651 8.269 4.388a2.501 2.501 0 0 0 3.541-3.532z"/><path d="M195.736 119.176c-5.664 0-10.271 4.607-10.271 10.271s4.607 10.271 10.271 10.271 10.271-4.607 10.271-10.271-4.607-10.271-10.271-10.271zm0 15.543c-2.906 0-5.271-2.365-5.271-5.271s2.365-5.271 5.271-5.271 5.271 2.365 5.271 5.271-2.364 5.271-5.271 5.271zM232.164 57.952a2.495 2.495 0 0 0-2.09-.505l-17.657 3.718a2.5 2.5 0 0 0-1.985 2.446v21.325a2.5 2.5 0 1 0 5 0V65.64l12.657-2.665V81.22a2.5 2.5 0 1 0 5 0V59.894c0-.753-.34-1.467-.925-1.942z"/><path d="M207.818 77.323c-4.198 0-7.614 3.415-7.614 7.613s3.416 7.614 7.614 7.614 7.613-3.416 7.613-7.614-3.414-7.613-7.613-7.613zm0 10.228c-1.441 0-2.614-1.173-2.614-2.614s1.173-2.613 2.614-2.613 2.613 1.172 2.613 2.613-1.171 2.614-2.613 2.614zM225.475 73.605c-4.198 0-7.614 3.416-7.614 7.614s3.416 7.613 7.614 7.613 7.614-3.415 7.614-7.613-3.416-7.614-7.614-7.614zm0 10.228c-1.441 0-2.614-1.172-2.614-2.613s1.173-2.614 2.614-2.614 2.614 1.173 2.614 2.614-1.173 2.613-2.614 2.613z"/></g></svg>