<svg version="1.1" id="Layer_1" xmlns="http://www.w3.org/2000/svg" x="0" y="0" viewBox="0 0 256 256" style="enable-background:new 0 0 256 256" xml:space="preserve"><style>.st1{fill:#291b4a}.st4{fill:#d3d3d3}.st5{fill:#ebe7f2}.st6{fill:#f9b087}.st7{fill:#ff8639}.st8{fill:#65c1d6}.st9{fill:#149cb2}</style><circle transform="rotate(-45.001 128 128.002)" cx="128" cy="128" style="fill:#382b73" r="119.4"/><path class="st1" d="M200.059 176.407a2.5 2.5 0 0 0 2.5-2.5V70.08a2.5 2.5 0 0 0-2.5-2.5H55.941a2.5 2.5 0 0 0-2.5 2.5v103.827a2.5 2.5 0 1 0 5 0V72.58h139.118v101.327a2.5 2.5 0 0 0 2.5 2.5z"/><path class="st1" d="M67.05 82v86.256a2.5 2.5 0 0 0 2.5 2.5h116.9a2.5 2.5 0 0 0 2.5-2.5V82a2.5 2.5 0 0 0-2.5-2.5H69.55a2.5 2.5 0 0 0-2.5 2.5zm5 2.5h111.9v9.188H72.05V84.5zm0 14.188h111.9v67.068H72.05V98.688zM38.842 183.92a2.5 2.5 0 0 0 2.5 2.5h173.316a2.5 2.5 0 1 0 0-5H41.342a2.5 2.5 0 0 0-2.5 2.5z"/><path class="st1" d="M96.285 111.309c-.029.015-.059.023-.087.04-.024.014-.043.033-.066.048-6.74 3.997-11.271 11.343-11.271 19.731 0 12.642 10.285 22.927 22.927 22.927s22.927-10.285 22.927-22.927-10.285-22.927-22.927-22.927a22.788 22.788 0 0 0-11.503 3.108zm11.504 37.747c-9.885 0-17.927-8.042-17.927-17.927 0-5.683 2.667-10.747 6.806-14.034l8.965 15.298a2.499 2.499 0 0 0 2.157 1.236h17.732c-1.224 8.702-8.699 15.427-17.733 15.427zm17.732-20.428h-16.299l-8.247-14.073a17.815 17.815 0 0 1 6.814-1.353c9.034 0 16.509 6.724 17.732 15.426zM144.738 114.981a2.5 2.5 0 0 0 2.5 2.5h21.4a2.5 2.5 0 1 0 0-5h-21.4a2.5 2.5 0 0 0-2.5 2.5zM144.738 131.128a2.5 2.5 0 0 0 2.5 2.5h21.4a2.5 2.5 0 1 0 0-5h-21.4a2.5 2.5 0 0 0-2.5 2.5zM144.738 147.275a2.5 2.5 0 0 0 2.5 2.5h21.4a2.5 2.5 0 1 0 0-5h-21.4a2.5 2.5 0 0 0-2.5 2.5z"/><g><path class="st4" d="M67.05 92.188a2.5 2.5 0 0 0 2.5 2.5h116.9a2.5 2.5 0 1 0 0-5H69.55a2.5 2.5 0 0 0-2.5 2.5z"/><path class="st5" d="M67.05 92.188a2.5 2.5 0 0 0 2.5 2.5h116.9a2.5 2.5 0 1 0 0-5H69.55a2.5 2.5 0 0 0-2.5 2.5zm120.4 0c0 .551-.449 1-1 1H69.55c-.551 0-1-.449-1-1s.449-1 1-1h116.9c.551 0 1 .449 1 1z"/><path class="st8" d="M200.059 172.407a2.5 2.5 0 0 0 2.5-2.5V66.08a2.5 2.5 0 0 0-2.5-2.5H55.941a2.5 2.5 0 0 0-2.5 2.5v103.827a2.5 2.5 0 1 0 5 0V68.58h139.118v101.327a2.5 2.5 0 0 0 2.5 2.5z"/><path class="st8" d="M67.05 78v86.256a2.5 2.5 0 0 0 2.5 2.5h116.9a2.5 2.5 0 0 0 2.5-2.5V78a2.5 2.5 0 0 0-2.5-2.5H69.55a2.5 2.5 0 0 0-2.5 2.5zm5 2.5h111.9v81.256H72.05V80.5zM38.842 179.92a2.5 2.5 0 0 0 2.5 2.5h173.316a2.5 2.5 0 1 0 0-5H41.342a2.5 2.5 0 0 0-2.5 2.5z"/><path class="st9" d="M200.059 172.407a2.5 2.5 0 0 0 2.5-2.5V66.08a2.5 2.5 0 0 0-2.5-2.5H55.941a2.5 2.5 0 0 0-2.5 2.5v103.827a2.5 2.5 0 1 0 5 0V68.58h139.118v101.327a2.5 2.5 0 0 0 2.5 2.5zM58.441 67.08a1.5 1.5 0 0 0-1.5 1.5v101.327c0 .551-.449 1-1 1s-1-.449-1-1V66.08c0-.551.449-1 1-1h144.118c.551 0 1 .449 1 1v103.827c0 .551-.449 1-1 1s-1-.449-1-1V68.58a1.5 1.5 0 0 0-1.5-1.5H58.441z"/><path class="st9" d="M67.05 78v86.256a2.5 2.5 0 0 0 2.5 2.5h116.9a2.5 2.5 0 0 0 2.5-2.5V78a2.5 2.5 0 0 0-2.5-2.5H69.55a2.5 2.5 0 0 0-2.5 2.5zm120.4 0v86.256c0 .551-.449 1-1 1H69.55c-.551 0-1-.449-1-1V78c0-.551.449-1 1-1h116.9c.551 0 1 .449 1 1z"/><path class="st9" d="M72.05 163.256h111.9a1.5 1.5 0 0 0 1.5-1.5V80.5a1.5 1.5 0 0 0-1.5-1.5H72.05a1.5 1.5 0 0 0-1.5 1.5v81.256a1.5 1.5 0 0 0 1.5 1.5zm0-82.756h111.9v81.256H72.05V80.5zM38.842 179.92a2.5 2.5 0 0 0 2.5 2.5h173.316a2.5 2.5 0 1 0 0-5H41.342a2.5 2.5 0 0 0-2.5 2.5zm176.816 0c0 .551-.449 1-1 1H41.342c-.551 0-1-.449-1-1s.449-1 1-1h173.316c.552 0 1 .449 1 1z"/><path class="st6" d="M84.862 127.128c0 12.642 10.285 22.927 22.927 22.927s22.927-10.285 22.927-22.927-10.285-22.927-22.927-22.927-22.927 10.285-22.927 22.927zm40.854 0c0 9.885-8.042 17.927-17.927 17.927s-17.927-8.042-17.927-17.927 8.042-17.927 17.927-17.927c9.885.001 17.927 8.043 17.927 17.927z"/><path class="st6" d="m109.222 124.628-9.603-16.387a2.5 2.5 0 0 0-4.314 2.528l10.327 17.623a2.499 2.499 0 0 0 2.157 1.236h20.427a2.5 2.5 0 1 0 0-5h-18.994z"/><g><path class="st6" d="M144.738 110.981a2.5 2.5 0 0 0 2.5 2.5h21.4a2.5 2.5 0 1 0 0-5h-21.4a2.5 2.5 0 0 0-2.5 2.5z"/></g><g><path class="st4" d="M144.738 127.128a2.5 2.5 0 0 0 2.5 2.5h21.4a2.5 2.5 0 1 0 0-5h-21.4a2.5 2.5 0 0 0-2.5 2.5z"/></g><g><path class="st5" d="M144.738 127.128a2.5 2.5 0 0 0 2.5 2.5h21.4a2.5 2.5 0 1 0 0-5h-21.4a2.5 2.5 0 0 0-2.5 2.5zm2.5-1h21.4c.551 0 1 .449 1 1s-.449 1-1 1h-21.4c-.551 0-1-.449-1-1s.449-1 1-1z"/></g><g><path class="st6" d="M144.738 143.275a2.5 2.5 0 0 0 2.5 2.5h21.4a2.5 2.5 0 1 0 0-5h-21.4a2.5 2.5 0 0 0-2.5 2.5z"/></g><g><path class="st7" d="M125.521 128.128h-17.732c-.354 0-.684-.189-.863-.494l-8.965-15.298a1.5 1.5 0 0 0-2.228-.417c-4.686 3.721-7.373 9.264-7.373 15.209 0 10.712 8.715 19.427 19.427 19.427 9.616 0 17.878-7.187 19.217-16.719a1.502 1.502 0 0 0-1.483-1.708zm-17.732 16.928c-9.885 0-17.927-8.042-17.927-17.927 0-5.683 2.667-10.747 6.806-14.034l8.965 15.298a2.499 2.499 0 0 0 2.157 1.236h17.732c-1.224 8.702-8.699 15.427-17.733 15.427z"/><path class="st7" d="M100.403 109.168a1.5 1.5 0 0 0-.721 2.145l8.247 14.073c.269.459.762.742 1.294.742h16.299a1.5 1.5 0 0 0 1.485-1.709c-1.339-9.531-9.601-16.718-19.217-16.718a19.29 19.29 0 0 0-7.387 1.467zm25.118 15.46h-16.299l-8.247-14.073a17.815 17.815 0 0 1 6.814-1.353c9.034 0 16.509 6.724 17.732 15.426z"/><path class="st7" d="M96.285 107.309c-.028.015-.059.023-.087.04-.024.014-.043.033-.066.048-6.74 3.997-11.271 11.343-11.271 19.731 0 12.642 10.285 22.927 22.927 22.927s22.927-10.285 22.927-22.927-10.285-22.927-22.927-22.927a22.788 22.788 0 0 0-11.503 3.108zm32.931 19.819c0 11.815-9.612 21.427-21.427 21.427s-21.427-9.612-21.427-21.427c0-7.521 4.037-14.587 10.57-18.462l.026-.017.036-.019.046-.026a21.37 21.37 0 0 1 10.749-2.904c11.815.002 21.427 9.614 21.427 21.428z"/><g><path class="st7" d="M144.738 110.981a2.5 2.5 0 0 0 2.5 2.5h21.4a2.5 2.5 0 1 0 0-5h-21.4a2.5 2.5 0 0 0-2.5 2.5zm2.5-1h21.4c.551 0 1 .449 1 1s-.449 1-1 1h-21.4c-.551 0-1-.449-1-1s.449-1 1-1z"/></g><g><path class="st7" d="M144.738 143.275a2.5 2.5 0 0 0 2.5 2.5h21.4a2.5 2.5 0 1 0 0-5h-21.4a2.5 2.5 0 0 0-2.5 2.5zm2.5-1h21.4c.551 0 1 .449 1 1s-.449 1-1 1h-21.4c-.551 0-1-.449-1-1s.449-1 1-1z"/></g></g></g></svg>