<svg version="1.1" id="Icon_Set" xmlns="http://www.w3.org/2000/svg" x="0" y="0" viewBox="0 0 256 256" style="enable-background:new 0 0 256 256" xml:space="preserve"><style>.st0{fill:#4c4372}.st3{fill:#d3e6f8}</style><circle cx="128" cy="128" r="103.5" style="fill:#f0c48a"/><path d="M108.25 104.875H73.996a7.54 7.54 0 0 1-7.539-7.539V63.082a7.54 7.54 0 0 1 7.539-7.539h34.254a7.54 7.54 0 0 1 7.54 7.539v34.254a7.54 7.54 0 0 1-7.54 7.539z" style="fill:#a4cff2"/><path d="M108.251 55.542h-9.204a7.539 7.539 0 0 1 7.539 7.54v34.254a7.539 7.539 0 0 1-7.539 7.539h9.204a7.54 7.54 0 0 0 7.539-7.539V63.082a7.54 7.54 0 0 0-7.539-7.54z" style="fill:#7babf1"/><path d="M182.003 104.875h-34.254a7.54 7.54 0 0 1-7.539-7.539V63.082a7.54 7.54 0 0 1 7.539-7.539h34.254a7.539 7.539 0 0 1 7.539 7.539v34.254a7.54 7.54 0 0 1-7.539 7.539z" style="fill:#fd919e"/><path class="st0" d="M108.251 107.875H73.997c-5.812 0-10.54-4.728-10.54-10.539V63.082c0-5.811 4.729-10.539 10.54-10.539h34.254c5.812 0 10.539 4.728 10.539 10.539v34.254c0 5.811-4.727 10.539-10.539 10.539zM73.997 58.543a4.545 4.545 0 0 0-4.54 4.539v34.254a4.545 4.545 0 0 0 4.54 4.539h34.254a4.544 4.544 0 0 0 4.539-4.539V63.082a4.544 4.544 0 0 0-4.539-4.539H73.997z"/><path class="st0" d="M96.514 86.686h-9.485l-1.912 5.074a2.19 2.19 0 0 1-2.03 1.366c-.272 0-.507-.039-.741-.117-1.132-.429-1.679-1.678-1.288-2.81l8.626-22.99c.352-.859 1.21-1.405 2.068-1.366.898-.039 1.718.507 2.069 1.366l8.626 22.99c.391 1.132-.156 2.381-1.288 2.81a2.117 2.117 0 0 1-.742.117c-.858 0-1.678-.507-1.99-1.366l-1.913-5.074zm-1.601-4.294L91.751 74l-3.161 8.392h6.323z"/><path d="M182.003 55.542H172.8a7.539 7.539 0 0 1 7.539 7.54v34.254a7.539 7.539 0 0 1-7.539 7.539h9.203a7.54 7.54 0 0 0 7.539-7.539V63.082a7.54 7.54 0 0 0-7.539-7.54z" style="fill:#e8677d"/><path class="st0" d="M182.003 107.875h-34.254c-5.812 0-10.539-4.728-10.539-10.539V63.082c0-5.811 4.728-10.539 10.539-10.539h34.254c5.812 0 10.539 4.728 10.539 10.539v34.254c0 5.811-4.728 10.539-10.539 10.539zm-34.254-49.332a4.544 4.544 0 0 0-4.539 4.539v34.254a4.544 4.544 0 0 0 4.539 4.539h34.254a4.544 4.544 0 0 0 4.539-4.539V63.082a4.544 4.544 0 0 0-4.539-4.539h-34.254z"/><path class="st0" d="M157.347 90.979V67.95a2.14 2.14 0 0 1 2.146-2.146H165.036a7.412 7.412 0 0 1 7.416 7.416 7.354 7.354 0 0 1-1.483 4.45c2.342 1.483 3.942 4.098 3.942 7.064 0 4.645-3.747 8.392-8.354 8.392h-6.908c-.039 0-.039-.039-.039-.039-.078 0-.078.039-.117.039a2.165 2.165 0 0 1-2.146-2.147zm4.332-14.598h3.357c1.717 0 3.083-1.444 3.083-3.162s-1.366-3.083-3.083-3.083h-3.357v6.245zm0 12.412h4.879c2.226-.039 4.021-1.795 4.021-4.06 0-2.225-1.795-3.981-4.021-4.02h-4.879v8.08z"/><path d="M133.317 118.002a6.893 6.893 0 0 0-6.893 6.893 6.893 6.893 0 0 0-6.893-6.893 6.893 6.893 0 0 0-6.894 6.893 6.893 6.893 0 1 0-13.786 0v-22.387a6.893 6.893 0 1 0-13.786 0v51.203a6.893 6.893 0 0 0-6.893-6.893 6.893 6.893 0 0 0-6.894 6.893v24.559a6.893 6.893 0 0 0 6.894 6.893h6.893v6.886a7.624 7.624 0 0 0 7.624 7.624h2.787v16.784h34.319v-16.784h2.787a7.624 7.624 0 0 0 7.624-7.624v-67.155a6.887 6.887 0 0 0-6.889-6.892z" style="fill:#fff"/><path class="st3" d="M129.799 199.673h2.787a7.624 7.624 0 0 0 7.624-7.624v-66.922c0-3.49-2.496-6.605-5.956-7.063a6.872 6.872 0 0 0-5.218 1.434v67.91a3.616 3.616 0 0 1-3.616 3.616 3.617 3.617 0 0 0-3.617 3.617v21.816h7.996v-16.784zM78.521 146.835a7 7 0 0 1 .046.771v-.769a.774.774 0 0 1-.046-.002zM106.139 118.79c0-.152.013-.301.022-.451-.014.16-.022.313-.022.451zM119.879 118.019c.027.254.045.51.045.771 0-.259.018-.515.046-.767a2.652 2.652 0 0 1-.091-.004z"/><path class="st0" d="M129.799 219.458h-34.32a3 3 0 0 1-3-3v-13.786c-5.76-.114-10.411-4.835-10.411-10.622v-3.886h-3.893c-5.455 0-9.894-4.438-9.894-9.893v-24.559c0-5.455 4.438-9.893 9.894-9.893 1.381 0 2.697.285 3.893.798v-42.109c0-5.455 4.438-9.893 9.893-9.893s9.893 4.438 9.893 9.893V115.8a9.832 9.832 0 0 1 3.893-.798 9.86 9.86 0 0 1 6.893 2.803c1.783-1.734 4.216-2.803 6.894-2.803s5.109 1.069 6.893 2.803a9.859 9.859 0 0 1 6.893-2.803c5.455 0 9.893 4.438 9.893 9.893v67.155c0 5.787-4.651 10.508-10.411 10.622v13.786a3.005 3.005 0 0 1-3.003 3zm-31.32-6h28.319v-13.784a3 3 0 0 1 3-3h2.787a4.629 4.629 0 0 0 4.624-4.624v-67.155c0-2.146-1.746-3.893-3.893-3.893s-3.893 1.747-3.893 3.893a3 3 0 1 1-6 0c0-2.146-1.746-3.893-3.893-3.893s-3.894 1.747-3.894 3.893a3 3 0 1 1-6 0c0-2.146-1.746-3.893-3.893-3.893s-3.893 1.747-3.893 3.893a3 3 0 1 1-6 0v-22.387c0-2.146-1.746-3.893-3.893-3.893s-3.893 1.747-3.893 3.893v51.204a3 3 0 1 1-6 0c0-2.146-1.746-3.893-3.893-3.893s-3.894 1.747-3.894 3.893v24.559a3.898 3.898 0 0 0 3.894 3.893h6.893a3 3 0 0 1 3 3v6.886a4.629 4.629 0 0 0 4.624 4.624h2.787a3 3 0 0 1 3 3v13.784z"/><path class="st0" d="M85.068 175.391a3 3 0 0 1-3-3v-18.68a3 3 0 1 1 6 0v18.68a3 3 0 0 1-3 3zM98.854 143.389a3 3 0 0 1-3-3v-15.494a3 3 0 1 1 6 0v15.494a3 3 0 0 1-3 3z"/><g><path class="st0" d="M112.639 143.389a3 3 0 0 1-3-3v-15.494a3 3 0 1 1 6 0v15.494a3 3 0 0 1-3 3z"/></g><g><path class="st0" d="M126.425 143.389a3 3 0 0 1-3-3v-15.494a3 3 0 1 1 6 0v15.494a3 3 0 0 1-3 3z"/></g></svg>